<svg width="132" height="24" viewBox="0 0 132 24" fill="none" xmlns="http://www.w3.org/2000/svg">
<path d="M15.896 7.64006C15.4907 6.8934 14.904 6.32806 14.136 5.94406C13.3894 5.53873 12.504 5.33606 11.48 5.33606C9.70936 5.33606 8.2907 5.92273 7.22403 7.09606C6.15736 8.24806 5.62403 9.79473 5.62403 11.7361C5.62403 13.8054 6.1787 15.4267 7.28803 16.6001C8.4187 17.7521 9.96536 18.3281 11.928 18.3281C13.272 18.3281 14.4027 17.9867 15.32 17.3041C16.2587 16.6214 16.9414 15.6401 17.368 14.3601H10.424V10.3281H22.328V15.4161C21.9227 16.7814 21.2294 18.0507 20.248 19.2241C19.288 20.3974 18.0614 21.3467 16.568 22.0721C15.0747 22.7974 13.3894 23.1601 11.512 23.1601C9.29336 23.1601 7.30936 22.6801 5.56003 21.7201C3.83203 20.7387 2.47736 19.3841 1.49603 17.6561C0.53603 15.9281 0.0560303 13.9547 0.0560303 11.7361C0.0560303 9.5174 0.53603 7.54406 1.49603 5.81606C2.47736 4.06673 3.83203 2.71206 5.56003 1.75206C7.28803 0.77073 9.26136 0.280064 11.48 0.280064C14.168 0.280064 16.4294 0.93073 18.264 2.23206C20.12 3.5334 21.3467 5.33606 21.944 7.64006H15.896Z" fill="url(#paint0_linear_205_20)"/>
<path d="M40.843 19.0321H32.459L31.115 23.0001H25.387L33.515 0.536064H39.851L47.979 23.0001H42.187L40.843 19.0321ZM39.435 14.8081L36.651 6.58406L33.899 14.8081H39.435Z" fill="url(#paint1_linear_205_20)"/>
<path d="M60.0808 23.2241C58.4381 23.2241 56.9661 22.9574 55.6648 22.4241C54.3634 21.8907 53.3181 21.1014 52.5288 20.0561C51.7608 19.0107 51.3554 17.7521 51.3128 16.2801H57.1368C57.2221 17.1121 57.5101 17.7521 58.0008 18.2001C58.4914 18.6267 59.1314 18.8401 59.9208 18.8401C60.7314 18.8401 61.3714 18.6587 61.8408 18.2961C62.3101 17.9121 62.5448 17.3894 62.5448 16.7281C62.5448 16.1734 62.3528 15.7147 61.9688 15.3521C61.6061 14.9894 61.1474 14.6907 60.5928 14.4561C60.0594 14.2214 59.2914 13.9547 58.2888 13.6561C56.8381 13.2081 55.6541 12.7601 54.7368 12.3121C53.8194 11.8641 53.0301 11.2027 52.3688 10.3281C51.7074 9.4534 51.3768 8.31206 51.3768 6.90406C51.3768 4.8134 52.1341 3.1814 53.6488 2.00806C55.1634 0.813398 57.1368 0.216064 59.5688 0.216064C62.0434 0.216064 64.0381 0.813398 65.5528 2.00806C67.0674 3.1814 67.8781 4.82406 67.9848 6.93606H62.0648C62.0221 6.21073 61.7554 5.6454 61.2648 5.24006C60.7741 4.8134 60.1448 4.60006 59.3768 4.60006C58.7154 4.60006 58.1821 4.7814 57.7768 5.14406C57.3714 5.4854 57.1688 5.98673 57.1688 6.64806C57.1688 7.3734 57.5101 7.93873 58.1928 8.34406C58.8754 8.7494 59.9421 9.18673 61.3928 9.65606C62.8434 10.1467 64.0168 10.6161 64.9128 11.0641C65.8301 11.5121 66.6194 12.1627 67.2808 13.0161C67.9421 13.8694 68.2728 14.9681 68.2728 16.3121C68.2728 17.5921 67.9421 18.7547 67.2808 19.8001C66.6408 20.8454 65.7021 21.6774 64.4648 22.2961C63.2274 22.9147 61.7661 23.2241 60.0808 23.2241Z" fill="url(#paint2_linear_205_20)"/>
<path d="M78.6123 18.7761H85.7803V23.0001H73.1403V0.536064H78.6123V18.7761Z" fill="url(#paint3_linear_205_20)"/>
<path d="M95.2663 0.536064V13.9761C95.2663 15.3201 95.5969 16.3547 96.2583 17.0801C96.9196 17.8054 97.8903 18.1681 99.1703 18.1681C100.45 18.1681 101.432 17.8054 102.114 17.0801C102.797 16.3547 103.138 15.3201 103.138 13.9761V0.536064H108.61V13.9441C108.61 15.9494 108.184 17.6454 107.33 19.0321C106.477 20.4187 105.325 21.4641 103.874 22.1681C102.445 22.8721 100.845 23.2241 99.0743 23.2241C97.3036 23.2241 95.7143 22.8827 94.3063 22.2001C92.9196 21.4961 91.821 20.4507 91.0103 19.0641C90.1996 17.6561 89.7943 15.9494 89.7943 13.9441V0.536064H95.2663Z" fill="url(#paint4_linear_205_20)"/>
<path d="M125.409 23.0001L120.737 14.5201H119.425V23.0001H113.953V0.536064H123.137C124.907 0.536064 126.411 0.845397 127.649 1.46406C128.907 2.08273 129.846 2.93606 130.465 4.02406C131.083 5.09073 131.393 6.2854 131.393 7.60806C131.393 9.1014 130.966 10.4347 130.113 11.6081C129.281 12.7814 128.043 13.6134 126.401 14.1041L131.585 23.0001H125.409ZM119.425 10.6481H122.817C123.819 10.6481 124.566 10.4027 125.057 9.91206C125.569 9.4214 125.825 8.72806 125.825 7.83206C125.825 6.97873 125.569 6.30673 125.057 5.81606C124.566 5.3254 123.819 5.08006 122.817 5.08006H119.425V10.6481Z" fill="url(#paint5_linear_205_20)"/>
<defs>
<linearGradient id="paint0_linear_205_20" x1="2.79621" y1="3.70835" x2="122.571" y2="45.668" gradientUnits="userSpaceOnUse">
<stop stop-color="#9B51E0"/>
<stop offset="1" stop-color="#3081ED"/>
</linearGradient>
<linearGradient id="paint1_linear_205_20" x1="2.79621" y1="3.70835" x2="122.571" y2="45.668" gradientUnits="userSpaceOnUse">
<stop stop-color="#9B51E0"/>
<stop offset="1" stop-color="#3081ED"/>
</linearGradient>
<linearGradient id="paint2_linear_205_20" x1="2.79621" y1="3.70835" x2="122.571" y2="45.668" gradientUnits="userSpaceOnUse">
<stop stop-color="#9B51E0"/>
<stop offset="1" stop-color="#3081ED"/>
</linearGradient>
<linearGradient id="paint3_linear_205_20" x1="2.79621" y1="3.70835" x2="122.571" y2="45.668" gradientUnits="userSpaceOnUse">
<stop stop-color="#9B51E0"/>
<stop offset="1" stop-color="#3081ED"/>
</linearGradient>
<linearGradient id="paint4_linear_205_20" x1="2.79621" y1="3.70835" x2="122.571" y2="45.668" gradientUnits="userSpaceOnUse">
<stop stop-color="#9B51E0"/>
<stop offset="1" stop-color="#3081ED"/>
</linearGradient>
<linearGradient id="paint5_linear_205_20" x1="2.79621" y1="3.70835" x2="122.571" y2="45.668" gradientUnits="userSpaceOnUse">
<stop stop-color="#9B51E0"/>
<stop offset="1" stop-color="#3081ED"/>
</linearGradient>
</defs>
</svg>
